<svg width="44" height="41" viewBox="0 0 44 41" fill="none" xmlns="http://www.w3.org/2000/svg">
<g clip-path="url(#clip0_1_163)">
<path d="M35.5745 28.1867H12.5435C12.0279 28.1867 11.6099 27.7988 11.6099 27.3203V17.3362C11.6099 16.8577 12.0279 16.4698 12.5435 16.4698H35.5745C36.0901 16.4698 36.5081 16.8577 36.5081 17.3362V27.3203C36.5083 27.7987 36.0903 28.1867 35.5745 28.1867Z" fill="url(#paint0_linear_1_163)"/>
<path d="M11.6352 26.96L12.957 28.1867H35.5745C36.0901 28.1867 36.5081 27.7988 36.5081 27.3202V17.3362C36.5081 16.8577 36.0901 16.4697 35.5745 16.4697H12.5435C12.0279 16.4697 11.6099 16.8576 11.6099 17.3362V26.9096L11.6352 26.96Z" fill="url(#paint1_linear_1_163)"/>
<path d="M34.1717 26.8871H11.1407C10.625 26.8871 10.207 26.4992 10.207 26.0207V16.0366C10.207 15.558 10.625 15.1701 11.1407 15.1701H34.1717C34.6873 15.1701 35.1053 15.558 35.1053 16.0366V26.0206C35.1053 26.4992 34.6873 26.8871 34.1717 26.8871Z" fill="url(#paint2_linear_1_163)"/>
<path d="M10.2322 25.6604L11.554 26.8871H34.1715C34.6871 26.8871 35.1051 26.4992 35.1051 26.0206V16.0365C35.1051 15.558 34.6871 15.17 34.1715 15.17H11.1407C10.625 15.17 10.207 15.5579 10.207 16.0365V25.6099L10.2322 25.6604Z" fill="url(#paint3_linear_1_163)"/>
<path d="M32.7737 25.5874H9.74271C9.22708 25.5874 8.80908 25.1995 8.80908 24.721V14.7369C8.80908 14.2584 9.22708 13.8705 9.74271 13.8705H32.7737C33.2894 13.8705 33.7074 14.2584 33.7074 14.7369V24.721C33.7074 25.1995 33.2894 25.5874 32.7737 25.5874Z" fill="url(#paint4_linear_1_163)"/>
<path d="M8.83443 24.3607L10.1562 25.5874H32.7737C33.2894 25.5874 33.7074 25.1995 33.7074 24.721V14.7369C33.7074 14.2584 33.2894 13.8705 32.7737 13.8705H9.74271C9.22708 13.8705 8.80908 14.2584 8.80908 14.7369V24.3103L8.83443 24.3607Z" fill="url(#paint5_linear_1_163)"/>
<path d="M31.4573 24.3648H8.4263C7.91067 24.3648 7.49268 23.9768 7.49268 23.4983V13.5143C7.49268 13.0358 7.91067 12.6478 8.4263 12.6478H31.4573C31.973 12.6478 32.391 13.0358 32.391 13.5143V23.4982C32.391 23.9768 31.973 24.3648 31.4573 24.3648Z" fill="url(#paint6_linear_1_163)"/>
<path d="M30.9827 15.1249C30.3071 15.0924 29.755 14.5787 29.7199 13.9518C29.7122 13.8131 29.7296 13.6794 29.7675 13.5533H10.1125C10.1504 13.6792 10.1679 13.813 10.1601 13.9517C10.1249 14.5787 9.57279 15.0924 8.89732 15.1248C8.66623 15.136 8.44735 15.0924 8.25391 15.007V22.0052C8.44752 21.9199 8.66658 21.8762 8.89775 21.8874C9.5733 21.9202 10.1252 22.4341 10.1601 23.061C10.1677 23.1995 10.1504 23.3331 10.1125 23.459H29.7675C29.7296 23.3332 29.7122 23.1995 29.7199 23.061C29.7548 22.4341 30.3067 21.9202 30.9822 21.8874C31.2134 21.8762 31.4325 21.9198 31.626 22.0052V15.007C31.4327 15.0925 31.2137 15.136 30.9827 15.1249Z" fill="url(#paint7_linear_1_163)"/>
<path d="M19.94 21.5064C21.7255 21.5064 23.1729 20.163 23.1729 18.506C23.1729 16.8489 21.7255 15.5056 19.94 15.5056C18.1545 15.5056 16.707 16.8489 16.707 18.506C16.707 20.163 18.1545 21.5064 19.94 21.5064Z" fill="url(#paint8_linear_1_163)"/>
<path d="M15.4964 14.6556H10.5312V15.9812H15.4964V14.6556Z" fill="url(#paint9_linear_1_163)"/>
<path d="M29.3479 21.0314H24.3828V22.357H29.3479V21.0314Z" fill="url(#paint10_linear_1_163)"/>
<path d="M42.7321 9.25505C41.8421 8.95286 40.868 9.2978 40.405 10.0307C38.9453 7.79458 37.0181 5.83812 34.6969 4.2573C30.9772 1.72445 26.5661 0.385681 21.9402 0.385681C17.3142 0.385681 12.903 1.72445 9.18345 4.2573C5.54048 6.73799 2.86646 10.1432 1.4503 14.1045C1.11454 15.0437 1.66282 16.0578 2.6749 16.3694C3.68733 16.6812 4.77977 16.1722 5.11544 15.2329C6.27791 11.9812 8.47455 9.18503 11.4679 7.14666C14.5204 5.06801 18.1416 3.96922 21.9402 3.96922C25.7388 3.96922 29.3598 5.06801 32.4124 7.14674C34.1951 8.3606 35.695 9.8434 36.8623 11.531C35.9741 11.4072 35.0847 11.8745 34.7641 12.6879C34.3976 13.6172 34.9124 14.6463 35.9138 14.9864L39.9341 16.3516C39.9437 16.3548 39.9535 16.357 39.9631 16.3601C39.9969 16.371 40.0309 16.3809 40.0653 16.3901C40.0837 16.3949 40.102 16.4 40.1204 16.4044C40.1551 16.4126 40.1901 16.4196 40.2253 16.426C40.2433 16.4293 40.2612 16.4331 40.2791 16.4359C40.3165 16.4418 40.3541 16.4458 40.392 16.4497C40.4074 16.4513 40.4228 16.4536 40.4382 16.4548C40.4909 16.4588 40.5439 16.4611 40.5972 16.4611C40.5972 16.4611 40.5972 16.4611 40.5972 16.4611H40.5973C40.6474 16.4611 40.6974 16.4592 40.7469 16.4556C40.7587 16.4548 40.7705 16.4529 40.7824 16.4519C40.8205 16.4485 40.8586 16.4448 40.8963 16.4392C40.9109 16.4371 40.9254 16.4339 40.9401 16.4314C40.9753 16.4255 41.0103 16.4193 41.0449 16.4117C41.0611 16.4081 41.0772 16.4035 41.0934 16.3994C41.1263 16.3914 41.1588 16.3831 41.191 16.3734C41.1958 16.372 41.2006 16.371 41.2055 16.3696C41.215 16.3666 41.224 16.3626 41.2335 16.3595C41.2761 16.3457 41.3181 16.3307 41.3595 16.3142C41.3773 16.3071 41.395 16.3 41.4124 16.2925C41.4527 16.2751 41.4924 16.2562 41.5314 16.2362C41.5438 16.2299 41.5566 16.2242 41.5689 16.2176C41.6158 16.1924 41.6613 16.1647 41.7059 16.1357C41.7234 16.1244 41.74 16.1124 41.7568 16.1006C41.7865 16.0798 41.8157 16.0585 41.8443 16.0361C41.8599 16.0238 41.8754 16.0116 41.8906 15.9988C41.9231 15.9716 41.9545 15.9432 41.985 15.9139C41.9935 15.9058 42.0026 15.8981 42.0108 15.8898C42.0506 15.8501 42.0887 15.8087 42.1247 15.7654C42.1272 15.7624 42.1294 15.7592 42.1319 15.7562C42.164 15.7171 42.1944 15.6764 42.2232 15.6346C42.2308 15.6233 42.2381 15.6119 42.2455 15.6005C42.2678 15.5665 42.2888 15.5318 42.3089 15.4962C42.317 15.4815 42.3253 15.4669 42.333 15.452C42.3505 15.4186 42.3665 15.3844 42.3819 15.3497C42.389 15.3336 42.3967 15.3177 42.4033 15.3014C42.4055 15.2958 42.4084 15.2905 42.4106 15.2848L43.8817 11.5538C44.2482 10.6243 43.7334 9.59513 42.7321 9.25505Z" fill="url(#paint11_linear_1_163)"/>
<path d="M1.26782 31.5793C2.15778 31.8815 3.13188 31.5366 3.59491 30.8036C5.05465 33.0398 6.98179 34.9962 9.30304 36.5771C13.0226 39.1099 17.4338 40.4488 22.0598 40.4488C26.6857 40.4488 31.0969 39.11 34.8165 36.5771C38.4594 34.0964 41.1335 30.6912 42.5497 26.7299C42.8855 25.7906 42.3372 24.7766 41.3251 24.465C40.3127 24.1533 39.2202 24.6622 38.8846 25.6015C37.7221 28.8531 35.5254 31.6493 32.5321 33.6877C29.4796 35.7664 25.8584 36.8651 22.0598 36.8651C18.2612 36.8651 14.6402 35.7664 11.5876 33.6877C9.80492 32.4738 8.30497 30.991 7.13768 29.3034C8.02593 29.4273 8.91529 28.9599 9.23593 28.1466C9.60245 27.2173 9.0876 26.1881 8.08617 25.8481L4.06594 24.4829C4.05631 24.4796 4.04652 24.4775 4.03689 24.4744C4.00312 24.4634 3.96909 24.4535 3.93471 24.4444C3.91632 24.4395 3.89802 24.4345 3.87963 24.43C3.84491 24.4218 3.80993 24.4149 3.7747 24.4084C3.75673 24.4051 3.73877 24.4013 3.7209 24.3985C3.68352 24.3927 3.64588 24.3886 3.60798 24.3847C3.59259 24.3832 3.57721 24.3808 3.56183 24.3797C3.50915 24.3756 3.45613 24.3733 3.40285 24.3733C3.40285 24.3733 3.40285 24.3733 3.40276 24.3733H3.40267C3.35257 24.3733 3.30264 24.3752 3.25314 24.3788C3.24128 24.3797 3.22951 24.3815 3.21765 24.3826C3.17949 24.386 3.14142 24.3897 3.1037 24.3952C3.08909 24.3974 3.07456 24.4006 3.05987 24.4031C3.02472 24.409 2.98974 24.4151 2.95511 24.4228C2.93887 24.4263 2.9228 24.431 2.90656 24.435C2.87381 24.4431 2.84116 24.4514 2.80902 24.461C2.80421 24.4625 2.79939 24.4634 2.79449 24.4649C2.78496 24.4678 2.77602 24.4719 2.76648 24.4749C2.72394 24.4888 2.68192 24.5038 2.64049 24.5203C2.62271 24.5273 2.605 24.5344 2.58764 24.5419C2.54725 24.5594 2.50764 24.5783 2.46862 24.5983C2.45625 24.6046 2.44335 24.6103 2.43115 24.6168C2.38423 24.6421 2.33868 24.6698 2.29408 24.6987C2.27664 24.71 2.26005 24.7221 2.24321 24.7339C2.21347 24.7546 2.18425 24.776 2.15572 24.7983C2.14008 24.8106 2.12461 24.8229 2.1094 24.8356C2.07692 24.8628 2.04546 24.8912 2.01496 24.9205C2.00654 24.9286 1.99743 24.9364 1.98918 24.9447C1.94939 24.9843 1.91132 25.0258 1.87531 25.069C1.87282 25.072 1.87058 25.0752 1.86809 25.0783C1.83604 25.1173 1.80561 25.158 1.77682 25.1999C1.76918 25.2111 1.76187 25.2225 1.75448 25.2339C1.73222 25.2679 1.71117 25.3026 1.69115 25.3383C1.68298 25.3529 1.67473 25.3675 1.667 25.3824C1.64955 25.4159 1.63348 25.45 1.6181 25.4848C1.61097 25.5009 1.60332 25.5168 1.5967 25.533C1.59447 25.5386 1.59163 25.544 1.5894 25.5496L0.118148 29.2808C-0.248374 30.2101 0.26639 31.2393 1.26782 31.5793Z" fill="url(#paint12_radial_1_163)"/>
</g>
<defs>
<linearGradient id="paint0_linear_1_163" x1="11.6096" y1="22.3287" x2="36.5074" y2="22.3287" gradientUnits="userSpaceOnUse">
<stop stop-color="#61DB99"/>
<stop offset="1" stop-color="#009E74"/>
</linearGradient>
<linearGradient id="paint1_linear_1_163" x1="25.1839" y1="25.8605" x2="24.0478" y2="21.411" gradientUnits="userSpaceOnUse">
<stop stop-color="#009E74" stop-opacity="0"/>
<stop offset="1" stop-color="#009E74"/>
</linearGradient>
<linearGradient id="paint2_linear_1_163" x1="10.2068" y1="21.029" x2="35.1046" y2="21.029" gradientUnits="userSpaceOnUse">
<stop stop-color="#61DB99"/>
<stop offset="1" stop-color="#009E74"/>
</linearGradient>
<linearGradient id="paint3_linear_1_163" x1="23.6262" y1="25.0926" x2="22.8803" y2="21.2432" gradientUnits="userSpaceOnUse">
<stop stop-color="#009E74" stop-opacity="0"/>
<stop offset="1" stop-color="#009E74"/>
</linearGradient>
<linearGradient id="paint4_linear_1_163" x1="8.80886" y1="19.7294" x2="33.7067" y2="19.7294" gradientUnits="userSpaceOnUse">
<stop stop-color="#61DB99"/>
<stop offset="1" stop-color="#009E74"/>
</linearGradient>
<linearGradient id="paint5_linear_1_163" x1="23.1313" y1="26.3546" x2="19.6538" y2="11.5175" gradientUnits="userSpaceOnUse">
<stop stop-color="#009E74" stop-opacity="0"/>
<stop offset="1" stop-color="#009E74"/>
</linearGradient>
<linearGradient id="paint6_linear_1_163" x1="7.4925" y1="18.5068" x2="32.3903" y2="18.5068" gradientUnits="userSpaceOnUse">
<stop stop-color="#A7F3CE"/>
<stop offset="1" stop-color="#61DB99"/>
</linearGradient>
<linearGradient id="paint7_linear_1_163" x1="13.4361" y1="12.471" x2="28.0986" y2="28.2701" gradientUnits="userSpaceOnUse">
<stop stop-color="#61DB99"/>
<stop offset="1" stop-color="#009E74"/>
</linearGradient>
<linearGradient id="paint8_linear_1_163" x1="18.0157" y1="16.721" x2="22.3535" y2="21.3952" gradientUnits="userSpaceOnUse">
<stop stop-color="#A7F3CE"/>
<stop offset="1" stop-color="#61DB99"/>
</linearGradient>
<linearGradient id="paint9_linear_1_163" x1="11.6688" y1="14.071" x2="14.7013" y2="17.3385" gradientUnits="userSpaceOnUse">
<stop stop-color="#A7F3CE"/>
<stop offset="1" stop-color="#61DB99"/>
</linearGradient>
<linearGradient id="paint10_linear_1_163" x1="25.5196" y1="20.4462" x2="28.5521" y2="23.7138" gradientUnits="userSpaceOnUse">
<stop stop-color="#A7F3CE"/>
<stop offset="1" stop-color="#61DB99"/>
</linearGradient>
<linearGradient id="paint11_linear_1_163" x1="1.35154" y1="8.42414" x2="43.999" y2="8.42414" gradientUnits="userSpaceOnUse">
<stop stop-color="#FFB92D"/>
<stop offset="1" stop-color="#F59500"/>
</linearGradient>
<radialGradient id="paint12_radial_1_163" cx="0" cy="0" r="1" gradientUnits="userSpaceOnUse" gradientTransform="translate(22.2838 20.5455) rotate(180) scale(21.8589 20.2863)">
<stop stop-color="#BE3F45"/>
<stop offset="0.317" stop-color="#C14046"/>
<stop offset="0.538" stop-color="#CA4148"/>
<stop offset="0.729" stop-color="#D9444B"/>
<stop offset="0.902" stop-color="#EF4950"/>
<stop offset="1" stop-color="#FF4C54"/>
</radialGradient>
<clipPath id="clip0_1_163">
<rect width="44" height="40.8345" fill="white"/>
</clipPath>
</defs>
</svg>
